<svg width="20" height="20" viewBox="0 0 20 20" fill="none" xmlns="http://www.w3.org/2000/svg">
<path d="M17.1754 15.9917C17.6977 15.2916 18.0561 14.4833 18.2241 13.6262C18.3922 12.7691 18.3657 11.8853 18.1465 11.0398C17.9274 10.1944 17.5212 9.40894 16.9579 8.74147C16.3946 8.07399 15.6887 7.54152 14.8921 7.18335C14.7186 6.1851 14.3198 5.23953 13.7261 4.41849C13.1324 3.59745 12.3593 2.92254 11.4657 2.44504C10.5721 1.96754 9.58133 1.70002 8.5688 1.6628C7.55627 1.62557 6.54857 1.81963 5.62228 2.23023C4.69599 2.64083 3.87548 3.25716 3.22308 4.03239C2.57069 4.80762 2.10358 5.72136 1.85725 6.70418C1.61092 7.68699 1.59185 8.71303 1.80148 9.70432C2.01112 10.6956 2.44395 11.6261 3.06709 12.425L1.90875 13.575C1.79312 13.6922 1.71479 13.841 1.68365 14.0027C1.6525 14.1643 1.66994 14.3316 1.73375 14.4833C1.79627 14.6355 1.90243 14.7658 2.03887 14.8577C2.1753 14.9497 2.3359 14.9992 2.50042 15H7.24209C7.71429 15.9955 8.45878 16.8369 9.38938 17.4268C10.32 18.0168 11.3986 18.3311 12.5004 18.3333H17.5004C17.6649 18.3325 17.8255 18.283 17.962 18.1911C18.0984 18.0991 18.2046 17.9689 18.2671 17.8167C18.3309 17.6649 18.3483 17.4977 18.3172 17.336C18.286 17.1743 18.2077 17.0255 18.0921 16.9083L17.1754 15.9917ZM6.66709 12.5C6.66823 12.7791 6.69052 13.0577 6.73375 13.3333H4.50875L4.80042 13.05C4.87853 12.9725 4.94052 12.8804 4.98283 12.7788C5.02514 12.6773 5.04692 12.5684 5.04692 12.4583C5.04692 12.3483 5.02514 12.2394 4.98283 12.1379C4.94052 12.0363 4.87853 11.9441 4.80042 11.8667C4.33339 11.4048 3.96313 10.8544 3.7113 10.2477C3.45947 9.64102 3.33112 8.99022 3.33375 8.33335C3.33375 7.00726 3.86054 5.7355 4.79822 4.79781C5.7359 3.86013 7.00767 3.33335 8.33375 3.33335C9.36849 3.32713 10.3792 3.64533 11.2237 4.24323C12.0682 4.84113 12.7042 5.68866 13.0421 6.66668C12.8588 6.66668 12.6838 6.66668 12.5004 6.66668C10.9533 6.66668 9.46959 7.28126 8.37563 8.37522C7.28167 9.46919 6.66709 10.9529 6.66709 12.5ZM15.4504 16.6667L15.4921 16.7083H12.5004C11.5365 16.7066 10.6031 16.3708 9.85902 15.758C9.11498 15.1452 8.6064 14.2935 8.41992 13.3478C8.23344 12.4021 8.38059 11.421 8.83632 10.5717C9.29204 9.72235 10.0281 9.05727 10.9192 8.68976C11.8103 8.32226 12.8012 8.27506 13.7232 8.5562C14.6452 8.83735 15.4411 9.42945 15.9755 10.2316C16.5099 11.0338 16.7497 11.9965 16.6539 12.9556C16.5582 13.9147 16.1329 14.811 15.4504 15.4917C15.2934 15.6455 15.2036 15.8552 15.2004 16.075C15.2009 16.1853 15.2232 16.2943 15.2661 16.3959C15.309 16.4975 15.3717 16.5895 15.4504 16.6667Z" fill="#FFB300"/>
</svg>
