<svg width="24" height="24" viewBox="0 0 24 24" fill="none" xmlns="http://www.w3.org/2000/svg">
<path d="M18.7104 7.21C18.6175 7.11627 18.5069 7.04188 18.385 6.99111C18.2632 6.94034 18.1324 6.9142 18.0004 6.9142C17.8684 6.9142 17.7377 6.94034 17.6159 6.99111C17.494 7.04188 17.3834 7.11627 17.2904 7.21L9.84044 14.67L6.71044 11.53C6.61392 11.4368 6.49998 11.3634 6.37512 11.3142C6.25026 11.265 6.11694 11.2409 5.98276 11.2432C5.84858 11.2456 5.71617 11.2743 5.59309 11.3278C5.47001 11.3813 5.35868 11.4585 5.26544 11.555C5.1722 11.6515 5.09889 11.7655 5.04968 11.8903C5.00048 12.0152 4.97635 12.1485 4.97867 12.2827C4.98099 12.4169 5.00972 12.5493 5.06321 12.6723C5.1167 12.7954 5.19392 12.9068 5.29044 13L9.13044 16.84C9.2234 16.9337 9.334 17.0081 9.45586 17.0589C9.57772 17.1097 9.70843 17.1358 9.84044 17.1358C9.97245 17.1358 10.1032 17.1097 10.225 17.0589C10.3469 17.0081 10.4575 16.9337 10.5504 16.84L18.7104 8.68C18.8119 8.58636 18.893 8.4727 18.9484 8.3462C19.0038 8.21971 19.0324 8.0831 19.0324 7.945C19.0324 7.8069 19.0038 7.67029 18.9484 7.54379C18.893 7.41729 18.8119 7.30364 18.7104 7.21Z" fill="#2AD168"/>
</svg>
