<svg width="148" height="20" viewBox="0 0 148 20" fill="none" xmlns="http://www.w3.org/2000/svg">
<path d="M19.2018 2.44747V19.8022H15.0716V9.39431L11.2795 19.8022H7.94639L4.13019 9.36959V19.8022H0V2.44747H4.87894L9.63711 14.4623L14.347 2.44747H19.2018Z" fill="#2A3342"/>
<path d="M34.8764 12.6823C34.8764 13.0779 34.8523 13.4899 34.804 13.9184H25.4567C25.5211 14.7754 25.7868 15.4347 26.2537 15.8962C26.7368 16.3412 27.3245 16.5637 28.0169 16.5637C29.0474 16.5637 29.764 16.1187 30.1665 15.2287H34.5624C34.337 16.1351 33.9264 16.951 33.3306 17.6761C32.7509 18.4013 32.0183 18.9699 31.1327 19.382C30.2471 19.794 29.2568 20 28.1618 20C26.8415 20 25.666 19.7116 24.6355 19.1347C23.6049 18.5579 22.7998 17.7338 22.2202 16.6625C21.6405 15.5913 21.3506 14.3387 21.3506 12.9048C21.3506 11.471 21.6324 10.2184 22.196 9.1471C22.7757 8.07581 23.5808 7.25175 24.6113 6.67491C25.6419 6.09806 26.8254 5.80964 28.1618 5.80964C29.4661 5.80964 30.6255 6.08982 31.6399 6.65019C32.6543 7.21055 33.4433 8.00989 34.0069 9.04821C34.5866 10.0865 34.8764 11.2979 34.8764 12.6823ZM30.6496 11.5698C30.6496 10.8447 30.4081 10.2678 29.925 9.83931C29.4419 9.4108 28.8381 9.19654 28.1135 9.19654C27.4211 9.19654 26.8334 9.40255 26.3503 9.81459C25.8834 10.2266 25.5935 10.8117 25.4808 11.5698H30.6496Z" fill="#2A3342"/>
<path d="M36.2341 12.8801C36.2341 11.4627 36.4917 10.2184 37.007 9.1471C37.5384 8.07581 38.2549 7.25175 39.1566 6.67491C40.0583 6.09806 41.0647 5.80964 42.1758 5.80964C43.0614 5.80964 43.8665 5.99918 44.5911 6.37824C45.3318 6.75731 45.9114 7.26823 46.3301 7.911V1.50804H50.4603V19.8022H46.3301V17.8245C45.9437 18.4837 45.3881 19.0111 44.6635 19.4067C43.955 19.8022 43.1258 20 42.1758 20C41.0647 20 40.0583 19.7116 39.1566 19.1347C38.2549 18.5414 37.5384 17.7091 37.007 16.6378C36.4917 15.5501 36.2341 14.2975 36.2341 12.8801ZM46.3301 12.9048C46.3301 11.85 46.0403 11.0177 45.4606 10.4079C44.897 9.7981 44.2046 9.4932 43.3834 9.4932C42.5622 9.4932 41.8618 9.7981 41.2821 10.4079C40.7185 11.0012 40.4367 11.8253 40.4367 12.8801C40.4367 13.9349 40.7185 14.7754 41.2821 15.4017C41.8618 16.0115 42.5622 16.3164 43.3834 16.3164C44.2046 16.3164 44.897 16.0115 45.4606 15.4017C46.0403 14.7919 46.3301 13.9596 46.3301 12.9048Z" fill="#2A3342"/>
<path d="M55.5255 4.57355C54.8009 4.57355 54.2051 4.35929 53.7381 3.93078C53.2873 3.48579 53.0619 2.9419 53.0619 2.29914C53.0619 1.63989 53.2873 1.096 53.7381 0.667491C54.2051 0.222497 54.8009 0 55.5255 0C56.234 0 56.8136 0.222497 57.2645 0.667491C57.7315 1.096 57.9649 1.63989 57.9649 2.29914C57.9649 2.9419 57.7315 3.48579 57.2645 3.93078C56.8136 4.35929 56.234 4.57355 55.5255 4.57355ZM57.5785 6.00742V19.8022H53.4483V6.00742H57.5785Z" fill="#2A3342"/>
<path d="M59.7504 12.8801C59.7504 11.4627 60.008 10.2184 60.5233 9.1471C61.0547 8.07581 61.7712 7.25175 62.6729 6.67491C63.5746 6.09806 64.581 5.80964 65.6921 5.80964C66.6421 5.80964 67.4714 6.00742 68.1798 6.40297C68.9044 6.79852 69.46 7.31768 69.8464 7.96044V6.00742H73.9766V19.8022H69.8464V17.8492C69.4439 18.492 68.8803 19.0111 68.1557 19.4067C67.4472 19.8022 66.6179 20 65.6679 20C64.573 20 63.5746 19.7116 62.6729 19.1347C61.7712 18.5414 61.0547 17.7091 60.5233 16.6378C60.008 15.5501 59.7504 14.2975 59.7504 12.8801ZM69.8464 12.9048C69.8464 11.85 69.5566 11.0177 68.9769 10.4079C68.4133 9.7981 67.7209 9.4932 66.8997 9.4932C66.0785 9.4932 65.3781 9.7981 64.7984 10.4079C64.2348 11.0012 63.953 11.8253 63.953 12.8801C63.953 13.9349 64.2348 14.7754 64.7984 15.4017C65.3781 16.0115 66.0785 16.3164 66.8997 16.3164C67.7209 16.3164 68.4133 16.0115 68.9769 15.4017C69.5566 14.7919 69.8464 13.9596 69.8464 12.9048Z" fill="#2A3342"/>
<path d="M95.005 8.03461C95.005 9.03997 94.7795 9.96292 94.3287 10.8035C93.8778 11.6275 93.1854 12.295 92.2515 12.8059C91.3176 13.3169 90.1582 13.5723 88.7734 13.5723H86.2132V19.8022H82.083V2.44747H88.7734C90.126 2.44747 91.2693 2.68644 92.2032 3.1644C93.1371 3.64236 93.8375 4.30161 94.3045 5.14215C94.7715 5.98269 95.005 6.94685 95.005 8.03461ZM88.4594 10.2101C89.2485 10.2101 89.8362 10.0206 90.2226 9.64153C90.6091 9.26246 90.8023 8.72682 90.8023 8.03461C90.8023 7.3424 90.6091 6.80676 90.2226 6.42769C89.8362 6.04862 89.2485 5.85909 88.4594 5.85909H86.2132V10.2101H88.4594Z" fill="#2A3342"/>
<path d="M101.285 1.50804V19.8022H97.1552V1.50804H101.285Z" fill="#2A3342"/>
<path d="M103.457 12.8801C103.457 11.4627 103.715 10.2184 104.23 9.1471C104.762 8.07581 105.478 7.25175 106.38 6.67491C107.281 6.09806 108.288 5.80964 109.399 5.80964C110.349 5.80964 111.178 6.00742 111.887 6.40297C112.611 6.79852 113.167 7.31768 113.553 7.96044V6.00742H117.683V19.8022H113.553V17.8492C113.151 18.492 112.587 19.0111 111.863 19.4067C111.154 19.8022 110.325 20 109.375 20C108.28 20 107.281 19.7116 106.38 19.1347C105.478 18.5414 104.762 17.7091 104.23 16.6378C103.715 15.5501 103.457 14.2975 103.457 12.8801ZM113.553 12.9048C113.553 11.85 113.263 11.0177 112.684 10.4079C112.12 9.7981 111.428 9.4932 110.607 9.4932C109.785 9.4932 109.085 9.7981 108.505 10.4079C107.942 11.0012 107.66 11.8253 107.66 12.8801C107.66 13.9349 107.942 14.7754 108.505 15.4017C109.085 16.0115 109.785 16.3164 110.607 16.3164C111.428 16.3164 112.12 16.0115 112.684 15.4017C113.263 14.7919 113.553 13.9596 113.553 12.9048Z" fill="#2A3342"/>
<path d="M119.85 12.9048C119.85 11.471 120.132 10.2184 120.696 9.1471C121.275 8.07581 122.072 7.25175 123.087 6.67491C124.117 6.09806 125.293 5.80964 126.613 5.80964C128.304 5.80964 129.713 6.26288 130.84 7.16934C131.983 8.07581 132.732 9.35311 133.086 11.0012H128.69C128.32 9.94644 127.603 9.41904 126.541 9.41904C125.784 9.41904 125.18 9.72394 124.729 10.3337C124.278 10.9271 124.053 11.7841 124.053 12.9048C124.053 14.0255 124.278 14.8908 124.729 15.5006C125.18 16.0939 125.784 16.3906 126.541 16.3906C127.603 16.3906 128.32 15.8632 128.69 14.8084H133.086C132.732 16.4236 131.983 17.6926 130.84 18.6156C129.697 19.5385 128.288 20 126.613 20C125.293 20 124.117 19.7116 123.087 19.1347C122.072 18.5579 121.275 17.7338 120.696 16.6625C120.132 15.5913 119.85 14.3387 119.85 12.9048Z" fill="#2A3342"/>
<path d="M148 12.6823C148 13.0779 147.976 13.4899 147.928 13.9184H138.58C138.645 14.7754 138.91 15.4347 139.377 15.8962C139.86 16.3412 140.448 16.5637 141.141 16.5637C142.171 16.5637 142.888 16.1187 143.29 15.2287H147.686C147.461 16.1351 147.05 16.951 146.454 17.6761C145.875 18.4013 145.142 18.9699 144.256 19.382C143.371 19.794 142.38 20 141.285 20C139.965 20 138.79 19.7116 137.759 19.1347C136.729 18.5579 135.923 17.7338 135.344 16.6625C134.764 15.5913 134.474 14.3387 134.474 12.9048C134.474 11.471 134.756 10.2184 135.32 9.1471C135.899 8.07581 136.704 7.25175 137.735 6.67491C138.765 6.09806 139.949 5.80964 141.285 5.80964C142.59 5.80964 143.749 6.08982 144.763 6.65019C145.778 7.21055 146.567 8.00989 147.13 9.04821C147.71 10.0865 148 11.2979 148 12.6823ZM143.773 11.5698C143.773 10.8447 143.532 10.2678 143.049 9.83931C142.566 9.4108 141.962 9.19654 141.237 9.19654C140.545 9.19654 139.957 9.40255 139.474 9.81459C139.007 10.2266 138.717 10.8117 138.604 11.5698H143.773Z" fill="#2A3342"/>
</svg>
