<svg width="119" height="21" viewBox="0 0 119 21" fill="none" xmlns="http://www.w3.org/2000/svg">
<path d="M13.6079 3.152V6.44H9.14393V20H5.03993V6.44H0.575928V3.152H13.6079Z" fill="#2A3342"/>
<path d="M19.7716 8.84C20.2516 8.104 20.8516 7.528 21.5716 7.112C22.2916 6.68 23.0916 6.464 23.9716 6.464V10.808H22.8436C21.8196 10.808 21.0516 11.032 20.5396 11.48C20.0276 11.912 19.7716 12.68 19.7716 13.784V20H15.6676V6.608H19.7716V8.84Z" fill="#2A3342"/>
<path d="M39.1572 6.608V20H35.0532V18.176C34.6372 18.768 34.0692 19.248 33.3492 19.616C32.6452 19.968 31.8612 20.144 30.9972 20.144C29.9732 20.144 29.0692 19.92 28.2852 19.472C27.5012 19.008 26.8932 18.344 26.4612 17.48C26.0292 16.616 25.8132 15.6 25.8132 14.432V6.608H29.8932V13.88C29.8932 14.776 30.1252 15.472 30.5892 15.968C31.0532 16.464 31.6772 16.712 32.4612 16.712C33.2612 16.712 33.8932 16.464 34.3572 15.968C34.8212 15.472 35.0532 14.776 35.0532 13.88V6.608H39.1572Z" fill="#2A3342"/>
<path d="M59.1931 6.464C60.8571 6.464 62.1771 6.968 63.1531 7.976C64.1451 8.984 64.6411 10.384 64.6411 12.176V20H60.5611V12.728C60.5611 11.864 60.3291 11.2 59.8651 10.736C59.4171 10.256 58.7931 10.016 57.9931 10.016C57.1931 10.016 56.5611 10.256 56.0971 10.736C55.6491 11.2 55.4251 11.864 55.4251 12.728V20H51.3451V12.728C51.3451 11.864 51.1131 11.2 50.6491 10.736C50.2011 10.256 49.5771 10.016 48.7771 10.016C47.9771 10.016 47.3451 10.256 46.8811 10.736C46.4331 11.2 46.2091 11.864 46.2091 12.728V20H42.1051V6.608H46.2091V8.288C46.6251 7.728 47.1691 7.288 47.8411 6.968C48.5131 6.632 49.2731 6.464 50.1211 6.464C51.1291 6.464 52.0251 6.68 52.8091 7.112C53.6091 7.544 54.2331 8.16 54.6811 8.96C55.1451 8.224 55.7771 7.624 56.5771 7.16C57.3771 6.696 58.2491 6.464 59.1931 6.464Z" fill="#2A3342"/>
<path d="M80.1354 13.088C80.1354 13.472 80.1114 13.872 80.0634 14.288H70.7754C70.8394 15.12 71.1034 15.76 71.5674 16.208C72.0474 16.64 72.6314 16.856 73.3194 16.856C74.3434 16.856 75.0554 16.424 75.4554 15.56H79.8234C79.5994 16.44 79.1914 17.232 78.5994 17.936C78.0234 18.64 77.2954 19.192 76.4154 19.592C75.5354 19.992 74.5514 20.192 73.4634 20.192C72.1514 20.192 70.9834 19.912 69.9594 19.352C68.9354 18.792 68.1354 17.992 67.5594 16.952C66.9834 15.912 66.6954 14.696 66.6954 13.304C66.6954 11.912 66.9754 10.696 67.5354 9.656C68.1114 8.616 68.9114 7.816 69.9354 7.256C70.9594 6.696 72.1354 6.416 73.4634 6.416C74.7594 6.416 75.9114 6.688 76.9194 7.232C77.9274 7.776 78.7114 8.552 79.2714 9.56C79.8474 10.568 80.1354 11.744 80.1354 13.088ZM75.9354 12.008C75.9354 11.304 75.6954 10.744 75.2154 10.328C74.7354 9.912 74.1354 9.704 73.4154 9.704C72.7274 9.704 72.1434 9.904 71.6634 10.304C71.1994 10.704 70.9114 11.272 70.7994 12.008H75.9354Z" fill="#2A3342"/>
<path d="M81.4844 13.28C81.4844 11.904 81.7404 10.696 82.2524 9.656C82.7804 8.616 83.4924 7.816 84.3884 7.256C85.2844 6.696 86.2844 6.416 87.3884 6.416C88.2684 6.416 89.0684 6.6 89.7884 6.968C90.5244 7.336 91.1004 7.832 91.5164 8.456V2.24H95.6204V20H91.5164V18.08C91.1324 18.72 90.5804 19.232 89.8604 19.616C89.1564 20 88.3324 20.192 87.3884 20.192C86.2844 20.192 85.2844 19.912 84.3884 19.352C83.4924 18.776 82.7804 17.968 82.2524 16.928C81.7404 15.872 81.4844 14.656 81.4844 13.28ZM91.5164 13.304C91.5164 12.28 91.2284 11.472 90.6524 10.88C90.0924 10.288 89.4044 9.992 88.5884 9.992C87.7724 9.992 87.0764 10.288 86.5004 10.88C85.9404 11.456 85.6604 12.256 85.6604 13.28C85.6604 14.304 85.9404 15.12 86.5004 15.728C87.0764 16.32 87.7724 16.616 88.5884 16.616C89.4044 16.616 90.0924 16.32 90.6524 15.728C91.2284 15.136 91.5164 14.328 91.5164 13.304Z" fill="#2A3342"/>
<path d="M100.653 5.216C99.9335 5.216 99.3415 5.008 98.8775 4.592C98.4295 4.16 98.2055 3.632 98.2055 3.008C98.2055 2.368 98.4295 1.84 98.8775 1.424C99.3415 0.992001 99.9335 0.776001 100.653 0.776001C101.357 0.776001 101.933 0.992001 102.381 1.424C102.845 1.84 103.077 2.368 103.077 3.008C103.077 3.632 102.845 4.16 102.381 4.592C101.933 5.008 101.357 5.216 100.653 5.216ZM102.693 6.608V20H98.5895V6.608H102.693Z" fill="#2A3342"/>
<path d="M104.852 13.28C104.852 11.904 105.108 10.696 105.62 9.656C106.148 8.616 106.86 7.816 107.756 7.256C108.652 6.696 109.652 6.416 110.756 6.416C111.7 6.416 112.524 6.608 113.228 6.992C113.948 7.376 114.5 7.88 114.884 8.504V6.608H118.988V20H114.884V18.104C114.484 18.728 113.924 19.232 113.204 19.616C112.5 20 111.676 20.192 110.732 20.192C109.644 20.192 108.652 19.912 107.756 19.352C106.86 18.776 106.148 17.968 105.62 16.928C105.108 15.872 104.852 14.656 104.852 13.28ZM114.884 13.304C114.884 12.28 114.596 11.472 114.02 10.88C113.46 10.288 112.772 9.992 111.956 9.992C111.14 9.992 110.444 10.288 109.868 10.88C109.308 11.456 109.028 12.256 109.028 13.28C109.028 14.304 109.308 15.12 109.868 15.728C110.444 16.32 111.14 16.616 111.956 16.616C112.772 16.616 113.46 16.32 114.02 15.728C114.596 15.136 114.884 14.328 114.884 13.304Z" fill="#2A3342"/>
</svg>
