<svg width="24" height="24" viewBox="0 0 24 24" fill="none" xmlns="http://www.w3.org/2000/svg">
<path d="M6.99122 14.502C6.85989 14.502 6.72983 14.5278 6.60849 14.578C6.48715 14.6283 6.3769 14.7019 6.28403 14.7948C6.19117 14.8877 6.11751 14.9979 6.06727 15.1193C6.01702 15.2406 5.99118 15.3707 5.99122 15.502V17.2843C4.70226 15.8266 3.99092 13.9478 3.99122 12.002C3.99103 11.7079 4.00864 11.4141 4.04395 11.1221C4.06014 10.9916 4.0504 10.8591 4.0153 10.7323C3.9802 10.6055 3.92043 10.4869 3.8394 10.3832C3.75838 10.2796 3.65769 10.1929 3.54312 10.1283C3.42855 10.0636 3.30235 10.0222 3.17174 10.0064C3.04113 9.99058 2.90869 10.0007 2.78201 10.0362C2.65532 10.0717 2.53688 10.1318 2.43347 10.2131C2.33006 10.2944 2.24372 10.3954 2.17939 10.5101C2.11506 10.6249 2.07401 10.7512 2.0586 10.8819C2.0133 11.2535 1.9908 11.6276 1.99122 12.002C1.99258 14.3882 2.85017 16.6946 4.40809 18.502H2.99122C2.726 18.502 2.47165 18.6074 2.28411 18.7949C2.09657 18.9824 1.99122 19.2368 1.99122 19.502C1.99122 19.7672 2.09657 20.0216 2.28411 20.2091C2.47165 20.3966 2.726 20.502 2.99122 20.502H6.99122C7.14761 20.5 7.30128 20.4607 7.43941 20.3874C7.57755 20.314 7.69615 20.2087 7.78535 20.0802C7.79701 20.0648 7.8119 20.0534 7.82276 20.0372C7.82942 20.0272 7.8296 20.0155 7.83582 20.0053C7.88347 19.9248 7.91918 19.8378 7.94182 19.747C7.95662 19.696 7.96713 19.6439 7.97325 19.5911C7.97612 19.5603 7.99125 19.5336 7.99125 19.502V15.502C7.99128 15.3707 7.96544 15.2406 7.9152 15.1193C7.86496 14.9979 7.7913 14.8877 7.69843 14.7948C7.60556 14.7019 7.4953 14.6283 7.37396 14.578C7.25261 14.5278 7.12255 14.502 6.99122 14.502ZM8.49122 6.002H6.70875C8.16655 4.7131 10.0453 4.00177 11.9912 4.002C12.2852 4.00129 12.5789 4.0189 12.8706 4.05474C13.001 4.07057 13.1333 4.06057 13.2599 4.02529C13.3864 3.99001 13.5048 3.93015 13.6082 3.84913C13.7116 3.7681 13.7981 3.6675 13.8626 3.55306C13.9272 3.43863 13.9685 3.3126 13.9844 3.18218C14.0002 3.05175 13.9902 2.91949 13.9549 2.79293C13.9197 2.66637 13.8598 2.548 13.7788 2.44458C13.6977 2.34116 13.5971 2.2547 13.4827 2.19016C13.3683 2.12562 13.2422 2.08424 13.1118 2.06841C12.74 2.02355 12.3658 2.00137 11.9912 2.002C9.60508 2.00329 7.29863 2.86083 5.49122 4.41869V3.002C5.49122 2.73678 5.38586 2.48243 5.19832 2.29489C5.01079 2.10735 4.75643 2.002 4.49122 2.002C4.226 2.002 3.97165 2.10735 3.78411 2.29489C3.59657 2.48243 3.49122 2.73678 3.49122 3.002V7.002C3.49751 7.06809 3.51068 7.13335 3.53053 7.19671L3.53077 7.19793C3.55505 7.32098 3.60299 7.43815 3.67194 7.54293L3.68336 7.55983C3.74943 7.65593 3.83225 7.73937 3.92786 7.80617C3.93879 7.81417 3.94422 7.82643 3.95557 7.83406C3.96986 7.84352 3.98603 7.84652 4.00062 7.85518C4.05733 7.88929 4.11742 7.91744 4.17994 7.93918C4.26442 7.96857 4.35251 7.98635 4.44178 7.99203C4.45911 7.99295 4.4737 8.00203 4.49122 8.00203H8.49122C8.75643 8.00203 9.01079 7.89667 9.19832 7.70913C9.38586 7.5216 9.49122 7.26724 9.49122 7.00203C9.49122 6.73681 9.38586 6.48246 9.19832 6.29492C9.01079 6.10738 8.75643 6.00203 8.49122 6.00203V6.002ZM20.4517 16.8061C20.4274 16.683 20.3794 16.5658 20.3104 16.461L20.2991 16.4442C20.233 16.348 20.1501 16.2646 20.0544 16.1977C20.0435 16.1898 20.0382 16.1775 20.0269 16.1699C20.0161 16.1628 20.0032 16.1625 19.9923 16.1558C19.8654 16.0853 19.7264 16.0394 19.5825 16.0204C19.5509 16.0174 19.5236 16.0019 19.4912 16.0019H15.4912C15.226 16.0019 14.9716 16.1073 14.7841 16.2948C14.5966 16.4824 14.4912 16.7367 14.4912 17.0019C14.4912 17.2672 14.5966 17.5215 14.7841 17.7091C14.9716 17.8966 15.226 18.0019 15.4912 18.0019H17.2736C15.8159 19.2908 13.9371 20.0022 11.9912 20.0019C11.6973 20.0023 11.4035 19.9844 11.1118 19.9482C10.8484 19.9163 10.5831 19.9902 10.3742 20.1538C10.1653 20.3175 10.03 20.5574 9.99805 20.8208C9.96606 21.0842 10.04 21.3495 10.2037 21.5584C10.3673 21.7673 10.6072 21.9026 10.8706 21.9346C11.2425 21.9794 11.6167 22.0019 11.9912 22.0019C14.3774 22.0006 16.6838 21.1431 18.4912 19.5853V21.002C18.4912 21.2672 18.5966 21.5216 18.7841 21.7091C18.9716 21.8966 19.226 22.002 19.4912 22.002C19.7564 22.002 20.0108 21.8966 20.1983 21.7091C20.3859 21.5216 20.4912 21.2672 20.4912 21.002V17.002C20.4849 16.9359 20.4718 16.8707 20.4519 16.8073L20.4517 16.8061ZM20.9912 5.502C21.2564 5.502 21.5108 5.39664 21.6983 5.2091C21.8859 5.02157 21.9912 4.76721 21.9912 4.502C21.9912 4.23678 21.8859 3.98243 21.6983 3.79489C21.5108 3.60735 21.2564 3.502 20.9912 3.502H16.9912C16.9261 3.50827 16.8618 3.52124 16.7994 3.5407L16.7927 3.54204C16.6713 3.56633 16.5556 3.6137 16.452 3.68157L16.4324 3.69481C16.3368 3.76078 16.2537 3.84334 16.1871 3.93859C16.1793 3.94939 16.1671 3.9547 16.1597 3.96587C16.1525 3.97661 16.1523 3.98931 16.1456 4.00023C16.0742 4.12782 16.0279 4.26789 16.0092 4.41289C16.0064 4.44378 15.9912 4.47039 15.9912 4.502V8.502C15.9912 8.76721 16.0966 9.02157 16.2841 9.2091C16.4716 9.39664 16.726 9.502 16.9912 9.502C17.2564 9.502 17.5108 9.39664 17.6983 9.2091C17.8859 9.02157 17.9912 8.76721 17.9912 8.502V6.71912C19.2801 8.17709 19.9914 10.056 19.9912 12.0019C19.9914 12.296 19.9738 12.5899 19.9385 12.8818C19.9068 13.1451 19.9808 13.4101 20.1443 13.6188C20.3078 13.8275 20.5474 13.9629 20.8106 13.9951C20.8511 13.9998 20.8918 14.0021 20.9326 14.0019C21.1768 14.0016 21.4124 13.912 21.595 13.7499C21.7776 13.5878 21.8946 13.3645 21.9238 13.1221C21.9691 12.7504 21.9916 12.3764 21.9912 12.002C21.9898 9.61582 21.1322 7.30936 19.5742 5.502H20.9912Z" fill="#8896AB"/>
</svg>
